<svg width="16" height="16" viewBox="0 0 16 16" fill="none" xmlns="http://www.w3.org/2000/svg">
<path d="M7.09271 0.688846C7.37828 -0.229617 8.62172 -0.229614 8.9073 0.688848L10.1418 4.65931C10.2696 5.07006 10.6358 5.34816 11.0491 5.34816H15.0442C15.9683 5.34816 16.3526 6.58394 15.6049 7.15158L12.3729 9.60547C12.0385 9.85932 11.8986 10.3093 12.0263 10.72L13.2608 14.6905C13.5464 15.609 12.5405 16.3727 11.7928 15.8051L8.56074 13.3512C8.22638 13.0973 7.77362 13.0973 7.43926 13.3512L4.20719 15.8051C3.45954 16.3727 2.45358 15.609 2.73916 14.6905L3.9737 10.72C4.10141 10.3093 3.9615 9.85932 3.62714 9.60547L0.395076 7.15158C-0.352577 6.58394 0.0316675 5.34816 0.955817 5.34816H4.95087C5.36416 5.34816 5.73045 5.07006 5.85817 4.65931L7.09271 0.688846Z" fill="#FFB800"/>
</svg>
