<svg width="17" height="16" viewBox="0 0 17 16" fill="none" xmlns="http://www.w3.org/2000/svg">
<path d="M12.4805 7.64287C12.1759 7.64287 11.9351 7.39287 11.9351 7.09287C11.9351 6.82858 11.673 6.27858 11.2338 5.80001C10.8017 5.33572 10.3272 5.06429 9.93049 5.06429C9.6259 5.06429 9.38507 4.81429 9.38507 4.51429C9.38507 4.21429 9.63299 3.96429 9.93049 3.96429C10.6388 3.96429 11.3826 4.35001 12.0342 5.04287C12.6434 5.69287 13.033 6.50001 13.033 7.08572C13.033 7.39287 12.7851 7.64287 12.4805 7.64287Z" fill="#CF1500"/>
<path d="M15.0377 7.64282C14.7332 7.64282 14.4923 7.39282 14.4923 7.09282C14.4923 4.55711 12.4452 2.49997 9.93775 2.49997C9.63317 2.49997 9.39233 2.24997 9.39233 1.94997C9.39233 1.64997 9.63317 1.39282 9.93067 1.39282C13.0473 1.39282 15.5832 3.94996 15.5832 7.09282C15.5832 7.39282 15.3352 7.64282 15.0377 7.64282Z" fill="#CF1500"/>
<path d="M7.82674 10.6428L6.51632 11.9643C6.24007 12.2428 5.8009 12.2428 5.51757 11.9714C5.43965 11.8928 5.36174 11.8214 5.28382 11.7428C4.55424 11 3.89549 10.2214 3.30757 9.40711C2.72674 8.59282 2.25924 7.77854 1.91924 6.97139C1.58632 6.15711 1.41632 5.37854 1.41632 4.63568C1.41632 4.14997 1.50132 3.68568 1.67132 3.25711C1.84132 2.82139 2.11049 2.42139 2.4859 2.06425C2.93924 1.61425 3.43507 1.39282 3.95924 1.39282C4.15757 1.39282 4.3559 1.43568 4.53299 1.52139C4.71715 1.60711 4.88007 1.73568 5.00757 1.92139L6.6509 4.25711C6.7784 4.43568 6.87049 4.59997 6.93424 4.75711C6.99799 4.90711 7.0334 5.05711 7.0334 5.19282C7.0334 5.36425 6.98382 5.53568 6.88465 5.69997C6.79257 5.86425 6.65799 6.03568 6.48799 6.20711L5.94965 6.77139C5.87174 6.84997 5.83632 6.94282 5.83632 7.05711C5.83632 7.11425 5.8434 7.16425 5.85757 7.22139C5.87882 7.27854 5.90007 7.32139 5.91424 7.36425C6.04174 7.59997 6.26132 7.90711 6.57299 8.27854C6.89174 8.64997 7.23174 9.02854 7.60007 9.40711C7.6709 9.47854 7.74882 9.54997 7.81965 9.62139C8.10299 9.89997 8.11007 10.3571 7.82674 10.6428Z" fill="#CF1500"/>
<path d="M15.5625 13.0571C15.5625 13.2571 15.5271 13.4643 15.4562 13.6643C15.435 13.7214 15.4137 13.7786 15.3854 13.8357C15.265 14.0929 15.1092 14.3357 14.9037 14.5643C14.5567 14.95 14.1742 15.2286 13.7421 15.4071C13.735 15.4071 13.7279 15.4143 13.7208 15.4143C13.3029 15.5857 12.8496 15.6786 12.3608 15.6786C11.6383 15.6786 10.8662 15.5071 10.0517 15.1571C9.23708 14.8071 8.4225 14.3357 7.615 13.7429C7.33875 13.5357 7.0625 13.3286 6.80042 13.1071L9.11667 10.7714C9.315 10.9214 9.49208 11.0357 9.64083 11.1143C9.67625 11.1286 9.71875 11.15 9.76833 11.1714C9.825 11.1929 9.88167 11.2 9.94542 11.2C10.0658 11.2 10.1579 11.1571 10.2358 11.0786L10.7742 10.5429C10.9512 10.3643 11.1212 10.2286 11.2842 10.1429C11.4471 10.0429 11.61 9.99286 11.7871 9.99286C11.9217 9.99286 12.0633 10.0214 12.2192 10.0857C12.375 10.15 12.5379 10.2429 12.715 10.3643L15.0596 12.0429C15.2437 12.1714 15.3712 12.3214 15.4492 12.5C15.52 12.6786 15.5625 12.8571 15.5625 13.0571Z" fill="#CF1500"/>
</svg>
