<svg width="63" height="88" viewBox="0 0 63 88" fill="none" xmlns="http://www.w3.org/2000/svg">
<path fill-rule="evenodd" clip-rule="evenodd" d="M6.47315 0.241526C3.43916 1.08146 1.06723 3.5442 0.268226 6.6838C0.0361233 7.59545 0.00081566 11.9429 0.00081566 39.5742C0.00081566 74.6253 -0.0698005 72.3814 1.10308 74.6332C2.20014 76.7401 4.6339 78.5544 6.97123 79.008C7.50175 79.1111 9.05406 79.1953 10.4205 79.1953H12.9053V83.1473C12.9053 87.099 12.9053 87.0995 13.3454 87.5497C13.6301 87.8412 13.9886 88 14.3619 88C14.864 88 15.2719 87.6619 17.5067 85.3944L20.0745 82.7885L22.6423 85.3944C24.8772 87.6619 25.2851 88 25.7871 88C26.1604 88 26.5189 87.8412 26.8037 87.5497C27.2435 87.0995 27.2437 87.0986 27.2437 83.1523V79.2049L43.0607 79.1542L58.8777 79.1036L60.007 78.4768C61.2615 77.7807 61.8017 77.2095 62.517 75.8215L63 74.8847V39.5742V4.2638L62.517 3.32702C61.8017 1.939 61.2615 1.36779 60.007 0.671671L58.8777 0.0448879L33.1583 0.00948555C11.1152 -0.0207806 7.30083 0.0124207 6.47315 0.241526ZM58.5013 3.14377C58.8302 3.28446 59.3317 3.71131 59.6158 4.09247L60.1323 4.78548L60.1787 33.1828L60.2253 61.5801L33.4735 61.6289L6.72192 61.6777L5.68884 62.1045C5.12069 62.3393 4.25232 62.8093 3.75926 63.1488L2.86293 63.7662L2.91061 35.4824L2.9581 7.19869L3.44113 6.26191C3.70674 5.74647 4.12345 5.08245 4.36721 4.78603C4.85686 4.19043 6.39483 3.26924 7.2485 3.06012C7.55032 2.9862 19.0712 2.91723 32.8504 2.90678C53.8971 2.891 57.9991 2.92897 58.5013 3.14377ZM29.0763 10.5045C26.5494 11.0662 23.9516 12.8005 22.4016 14.9609L21.5431 16.1575L20.4052 16.1153C19.0298 16.0643 16.793 16.5128 15.4965 17.0997C10.528 19.3484 7.75249 24.8838 8.87465 30.3057C9.56773 33.6542 11.9992 36.8411 15.0113 38.3489L15.773 38.7303V44.588C15.773 48.651 15.8399 50.6771 15.991 51.2008C16.2818 52.2084 17.7666 53.728 18.7511 54.0257C19.2983 54.1911 22.6104 54.2487 31.5789 54.2487C45.3679 54.2487 44.7768 54.3083 46.1164 52.7835C46.5426 52.2983 46.9871 51.5739 47.1043 51.1737C47.2497 50.6775 47.3176 48.5838 47.3178 44.5973L47.3183 38.7488L48.2587 38.2451C50.4801 37.0554 52.3423 35.0549 53.4395 32.6794C55.9937 27.1507 53.5842 20.1286 48.2062 17.4281C46.4677 16.5551 44.3571 16.0533 42.6852 16.1153L41.5473 16.1575L40.6985 14.9745C39.5659 13.3959 38.385 12.3813 36.6533 11.4992C34.2799 10.2904 31.614 9.94044 29.0763 10.5045ZM33.5988 13.441C37.2956 14.4266 40.1482 18.0396 40.1482 21.7367C40.1482 23.2643 41.5962 23.9848 42.6006 22.9569C43.0392 22.508 43.0591 22.4082 42.9573 21.1684C42.898 20.4463 42.7969 19.6696 42.7325 19.4427C42.6277 19.0724 42.6777 19.0304 43.219 19.0327C43.5509 19.0342 44.3392 19.16 44.9708 19.3125C49.5927 20.4274 52.5251 25.2973 51.3515 29.9087C50.7203 32.3896 49.0663 34.5266 46.9317 35.6195C44.8982 36.6606 43.7828 36.7852 40.4755 36.3405C39.7362 36.2411 39.5835 36.2835 39.1761 36.7004C38.5696 37.3212 38.5836 38.0011 39.2161 38.6485C39.8079 39.254 41.6247 39.6458 43.3735 39.5447L44.4505 39.4825L44.4501 42.4633L44.4497 45.444H31.5452H18.6407L18.6403 42.4633L18.64 39.4825L19.717 39.5447C21.4657 39.6458 23.2826 39.254 23.8744 38.6485C24.5069 38.0011 24.5208 37.3212 23.9143 36.7004C23.5069 36.2835 23.3542 36.2411 22.6149 36.3405C20.3848 36.6404 19.3791 36.6702 18.4143 36.4651C16.7875 36.1193 15.074 35.1415 13.9144 33.8972C10.0305 29.7299 10.9428 23.2434 15.8345 20.2441C16.8717 19.6082 18.8108 19.03 19.9068 19.03C20.4109 19.03 20.4617 19.0764 20.3579 19.4427C20.2935 19.6696 20.1925 20.4463 20.1331 21.1684C20.0313 22.4082 20.0512 22.508 20.4898 22.9569C21.4942 23.9848 22.9422 23.2643 22.9422 21.7367C22.9422 21.2992 23.0625 20.4686 23.2096 19.8908C24.4158 15.151 29.1014 12.2421 33.5988 13.441ZM44.4497 49.3961C44.4497 50.2316 44.3711 50.4939 44.0097 50.8635L43.5699 51.3138H31.5452H19.5205L19.0807 50.8635C18.7194 50.4939 18.6407 50.2316 18.6407 49.3961V48.3789H31.5452H44.4497V49.3961ZM60.1854 69.4605C60.1354 74.1176 60.1112 74.4291 59.7628 74.9062C59.5595 75.1846 59.1706 75.5825 58.8983 75.7905C58.4087 76.1649 58.2422 76.1693 42.8236 76.2175L27.2437 76.2663V74.0622V71.8581H41.1421H55.0406L55.4804 71.4078C55.7579 71.124 55.9204 70.748 55.9204 70.3906C55.9204 70.0333 55.7579 69.6573 55.4804 69.3735L55.0406 68.9232H32.2621H9.48367L9.04384 69.3735C8.46171 69.9691 8.46171 70.8122 9.04384 71.4078C9.44944 71.8231 9.61702 71.8581 11.1946 71.8581H12.9053V74.0781V76.2982L9.99286 76.2305L7.08038 76.1628L5.94676 75.5368C4.71724 74.8575 3.98921 74.0785 3.37176 72.7809C2.78891 71.556 2.80809 69.1866 3.41102 67.9143C4.15804 66.3383 5.64816 65.0904 7.25961 64.6914C7.55534 64.6182 19.5965 64.55 34.0179 64.5396L60.2384 64.5209L60.1854 69.4605ZM24.376 77.3959V82.9336L22.5201 81.0645C20.9251 79.4582 20.5812 79.1953 20.0745 79.1953C19.5678 79.1953 19.2239 79.4582 17.6289 81.0645L15.773 82.9336V77.3959V71.8581H20.0745H24.376V77.3959Z" fill="#BE1704"/>
</svg>
