<svg width="158" height="19" viewBox="0 0 158 19" fill="none" xmlns="http://www.w3.org/2000/svg">
<path d="M1.02055 10.887C39.1587 8.56283 77.5665 6.82015 115.63 3.74326C128.791 2.67942 141.997 1.97715 155.182 1.17365C155.418 1.15926 158.18 0.990926 157.641 1.02378C153.91 1.25114 150.319 1.82437 146.668 2.34756C127.586 5.08182 108.377 7.48512 89.2617 10.1304C79.2386 11.5174 69.1336 12.789 59.1837 14.3535C55.2611 14.9702 49.8233 16.1271 45.2308 17.2398C44.0872 17.8522 48.1474 17.5695 49.7534 17.513C60.4492 17.1368 71.1748 17.0941 81.8704 16.8128C103.744 16.2374 125.502 15.4109 147.383 14.0775" stroke="#BE1704" stroke-width="1.6" stroke-linecap="round"/>
</svg>
