<svg width="90" height="90" viewBox="0 0 90 90" fill="none" xmlns="http://www.w3.org/2000/svg">
<path fill-rule="evenodd" clip-rule="evenodd" d="M54.0821 1.18262C50.607 1.5757 47.7572 2.44314 44.2234 4.18317C34.8554 8.79634 28.5483 18.3352 28.031 28.6721C27.9085 31.1193 27.9985 31.3765 28.9778 31.3765C29.6909 31.3765 29.8585 30.9793 29.9888 28.9835C30.3248 23.8257 31.9164 19.1515 34.7785 14.9167C36.2486 12.7415 39.8113 9.21019 42.0029 7.75569C46.838 4.54715 51.6776 3.08822 57.4572 3.09709C65.4536 3.10916 72.4503 6.26784 77.9422 12.3449C81.0764 15.8131 83.2354 20.1487 84.3039 25.1209C84.8847 27.8233 84.8847 33.0663 84.3039 35.7687C83.0538 41.5856 80.5188 46.1434 76.2526 50.2448C71.5228 54.7916 65.8101 57.2956 59.079 57.7721C57.2781 57.8995 56.8024 57.9902 56.6189 58.2409C56.2498 58.7453 56.3477 59.3346 56.8559 59.6672C57.3307 59.9781 57.8316 59.9584 62.6974 59.4381L63.4079 59.3621L68.0099 67.3617C70.5411 71.7615 72.8123 75.5186 73.0571 75.711C73.3019 75.9034 73.7038 76.1112 73.9502 76.1731C74.5677 76.3279 75.7411 75.8801 76.1438 75.3362C76.3275 75.0883 77.0398 73.2923 77.7271 71.3452C78.4144 69.3981 79.0009 67.7807 79.0306 67.751C79.0603 67.7214 80.8251 68.0256 82.9528 68.427C85.0803 68.8284 87.0025 69.1113 87.2244 69.0557C88.3767 68.7667 89.276 67.2978 88.9218 66.2829C88.8199 65.9906 86.7307 62.2763 84.2794 58.0287C81.828 53.7811 79.7765 50.1866 79.7205 50.0409C79.6607 49.8847 79.9458 49.3598 80.4154 48.7617C85.0753 42.8289 87.1974 35.9747 86.7321 28.3596C86.188 19.452 81.3507 11.1059 73.7996 6.04636C67.954 2.12956 60.9605 0.404438 54.0821 1.18262ZM55.4872 10.7525C46.649 11.5495 39.2645 18.4573 37.8347 27.2653C36.2067 37.2947 42.531 47.0215 52.3491 49.5882C59.1914 51.3768 66.3855 49.4125 71.4074 44.3842C79.092 36.6901 79.0894 24.2792 71.4015 16.5208C67.2374 12.3186 61.4364 10.2159 55.4872 10.7525ZM61.7463 13.2028C68.4895 14.9852 73.409 20.209 74.892 27.1617C75.1807 28.5143 75.1779 32.336 74.8873 33.7279C74.2806 36.634 73.0311 39.3153 71.2431 41.5478C67.8271 45.8131 62.8265 48.1956 57.3044 48.1889C49.2112 48.1789 42.1889 42.7056 40.117 34.7926C39.7189 33.2723 39.6523 32.6494 39.6523 30.4448C39.6523 28.262 39.7203 27.6126 40.101 26.1645C41.8995 19.3212 47.2574 14.2885 54.1709 12.9483C55.9601 12.6013 59.9828 12.7366 61.7463 13.2028ZM56.3951 20.1631C55.6192 20.4889 55.3073 20.9068 54.2178 23.08C53.6306 24.2513 53.0737 25.2582 52.9802 25.3175C52.887 25.3768 51.7977 25.566 50.5598 25.7377C49.3218 25.9095 48.0954 26.1592 47.8345 26.2927C47.2105 26.6117 46.6237 27.4538 46.5015 28.2055C46.323 29.3053 46.7101 29.961 48.618 31.7907L50.4179 33.5165L49.9993 36.0549C49.587 38.5542 49.5858 38.6047 49.9095 39.3219C50.2912 40.1677 51.4027 40.9151 52.2784 40.9151C52.6241 40.9151 53.7196 40.4633 55.1151 39.7449L57.3884 38.5747L59.6389 39.7449C61.0086 40.4571 62.1066 40.9151 62.4443 40.9151C63.6438 40.9151 64.794 39.9812 65.0267 38.8181C65.0852 38.5267 64.9564 37.2351 64.7406 35.9481L64.3482 33.6079L66.1233 31.8045C68.2386 29.6554 68.5393 29.0112 68.0391 27.7023C67.5918 26.5322 67.0102 26.2045 64.6864 25.813C63.5925 25.6286 62.48 25.4774 62.2141 25.4769C61.7735 25.476 61.6241 25.2683 60.5265 23.1329C59.8213 21.7608 59.1284 20.6497 58.8541 20.4515C58.3015 20.0518 57.0179 19.9013 56.3951 20.1631ZM59.0294 24.5615C59.6405 25.8298 60.2427 26.9523 60.3677 27.0559C60.4928 27.1598 61.7076 27.4073 63.0674 27.6061C66.1204 28.0526 66.1613 28.0653 66.1613 28.5715C66.1613 28.8625 65.5948 29.5182 64.2073 30.8334C61.951 32.972 62.0629 32.5903 62.685 36.0285C62.9138 37.294 63.064 38.4257 63.0187 38.5437C62.8368 39.0172 62.3723 38.8855 60.0691 37.7075C58.7479 37.0315 57.5197 36.4789 57.3399 36.4793C57.1602 36.4796 56.0155 36.9971 54.7964 37.6294C53.5773 38.2615 52.4804 38.8168 52.359 38.8633C52.0187 38.9939 51.5844 38.4519 51.6819 38.0186C51.8377 37.3259 52.4834 33.3406 52.4834 33.0709C52.4834 32.9266 51.6041 31.9408 50.5294 30.8805C49.1799 29.5489 48.5754 28.8274 48.5754 28.5484C48.5754 28.0749 48.5225 28.0907 51.7634 27.5986C53.0772 27.3992 54.2631 27.1438 54.3988 27.0313C54.5345 26.9188 55.1204 25.824 55.7009 24.5984C56.8132 22.2504 57.1323 21.8353 57.6236 22.098C57.7858 22.1847 58.4185 23.2934 59.0294 24.5615ZM27.2592 33.5671C26.5128 33.8901 25.7736 34.5697 25.2509 35.4136C24.9127 35.9598 24.854 36.377 24.765 38.8741C24.6483 42.1522 24.6029 42.2811 22.4503 45.4405C21.0883 47.4394 17.5612 51.9209 17.3566 51.9124C17.283 51.9094 16.9031 51.7101 16.5123 51.4696L15.8018 51.0324L9.58168 51.0315C2.53739 51.0304 2.59832 51.0198 1.59095 52.4395L1.05804 53.1905L1.01008 69.514C0.977751 80.4725 1.02305 86.064 1.14793 86.5272C1.39253 87.4344 2.11568 88.2708 3.00474 88.6742C3.65471 88.9693 4.27661 89 9.58453 89C14.948 89 15.5092 88.9716 16.1838 88.6655C16.5894 88.4815 17.1042 88.0839 17.3275 87.7821L17.7337 87.2332H30.3696C44.404 87.2332 43.9379 87.2699 45.3643 86.0502C46.5246 85.058 47.0556 83.8706 47.0611 82.2567C47.0648 81.1481 46.9843 80.762 46.5925 80.0074L46.1193 79.0965L47.0764 78.6287C49.5233 77.4327 50.556 74.3765 49.3304 71.9587L48.8419 70.9952L49.8189 70.4471C52.2811 69.0655 53.1286 66.1361 51.7792 63.6715L51.2673 62.7364L51.9198 62.4005C52.2786 62.2156 52.823 61.7978 53.1296 61.4722C55.4632 58.9927 54.8111 55.1211 51.7974 53.5626L50.676 52.9827H43.3197C39.2737 52.9827 35.9633 52.9326 35.9633 52.8716C35.9633 52.8105 36.2479 52.0498 36.5957 51.1812C37.8061 48.1592 38.5504 43.7563 38.2529 41.3792C37.8871 38.4559 35.7823 35.5671 33.0872 34.2892C30.9776 33.2888 28.5867 32.9926 27.2592 33.5671ZM30.1207 35.4175C33.6063 36.0778 36.1109 38.8518 36.2795 42.2381C36.4174 45.0083 35.4841 49.0196 34.0035 52.0205C33.5182 53.004 33.1212 53.9161 33.1212 54.0473C33.1212 54.1784 33.2535 54.4317 33.4152 54.6102C33.6919 54.9156 34.19 54.9348 41.8855 54.9348C49.8238 54.9348 50.0844 54.9456 50.831 55.3067C51.9542 55.85 52.5528 56.9351 52.4452 58.2329C52.3592 59.267 52.0144 59.8848 51.1723 60.5139C50.7284 60.8454 50.3603 60.8882 47.2574 60.9685C43.5322 61.0651 43.2464 61.1418 43.2464 62.045C43.2464 62.9167 43.7535 63.0981 46.1907 63.0981C48.1376 63.0981 48.4029 63.137 48.9445 63.5017C49.2742 63.7235 49.7327 64.1828 49.9635 64.5221C50.3159 65.0405 50.3724 65.3102 50.3168 66.2114C50.2363 67.5196 49.78 68.2373 48.6957 68.7617C47.9977 69.0992 47.6162 69.1319 44.3667 69.1319C40.5081 69.1319 40.3598 69.1681 40.3598 70.1079C40.3598 70.9842 40.6246 71.084 42.9572 71.085C45.6087 71.0861 46.2287 71.2467 47.038 72.1417C48.0219 73.2297 48.1159 74.6636 47.2833 75.8821C46.5291 76.9857 46.0216 77.1177 42.5337 77.1177C39.0494 77.1177 38.6279 77.2327 38.6279 78.1825C38.6279 79.0276 39.1533 79.2473 41.1744 79.2473C42.6175 79.2473 43.0474 79.3124 43.5805 79.6116C45.7441 80.8266 45.61 83.9187 43.3492 84.9446C42.6667 85.2543 41.9164 85.2734 30.4122 85.2772L18.1998 85.2811V69.7351V54.1891L19.7685 52.2993C22.7553 48.701 25.0551 45.4648 26.0273 43.4917C26.635 42.2585 26.9938 39.8514 26.8105 38.237C26.6686 36.9863 27.0127 36.091 27.8259 35.5958C28.4964 35.1873 28.7871 35.1648 30.1207 35.4175ZM82.5874 59.1614C84.91 63.1941 86.8206 66.628 86.833 66.7924C86.8604 67.1519 86.989 67.1654 82.7719 66.3659C79.1555 65.6804 78.7839 65.6538 78.057 66.0293C77.3768 66.3807 77.2113 66.7258 75.8255 70.6788C75.1828 72.5122 74.5966 74.0755 74.5228 74.1527C74.4489 74.23 74.3051 74.1901 74.2032 74.0639C73.8904 73.6769 65.4507 59.0361 65.4507 58.8807C65.4507 58.8003 66.122 58.5164 66.9423 58.2494C70.4693 57.102 75.2889 54.2006 77.4322 51.9346C77.8465 51.4968 77.9992 51.4276 78.1604 51.6048C78.2726 51.7282 80.2648 55.1287 82.5874 59.1614ZM15.7129 53.3376C16.0631 53.6874 16.0682 53.9291 16.0682 69.9917V86.2908L15.6943 86.6289C15.3429 86.9467 14.9757 86.967 9.58453 86.967C4.1933 86.967 3.82613 86.9467 3.47477 86.6289L3.10085 86.2908V69.9917C3.10085 53.9291 3.106 53.6874 3.45612 53.3376C3.79682 52.9972 4.04817 52.9827 9.58453 52.9827C15.1209 52.9827 15.3722 52.9972 15.7129 53.3376ZM7.64066 79.9967C7.27474 80.5185 7.29161 80.9014 7.69662 81.2676C7.96911 81.5139 8.329 81.559 9.6888 81.5169C11.2729 81.4679 11.3602 81.4443 11.6105 80.998C11.8455 80.5788 11.8412 80.4825 11.5682 80.0663C11.2756 79.6202 11.199 79.6022 9.59056 79.6022C8.06273 79.6022 7.89308 79.6365 7.64066 79.9967Z" fill="#BE1704" stroke="#BE1704" stroke-width="0.5"/>
</svg>
