<svg width="88" height="88" viewBox="0 0 88 88" fill="none" xmlns="http://www.w3.org/2000/svg">
<path fill-rule="evenodd" clip-rule="evenodd" d="M5.53316 0.142757C4.39155 0.412539 2.72451 1.39378 1.91285 2.27402C1.50041 2.72139 0.901128 3.63964 0.581462 4.31419L0 5.54098V44.0253V82.5096L0.68618 83.8973C1.51253 85.5688 2.57625 86.6099 4.28426 87.4187L5.51148 88H44.0096H82.5076L83.8958 87.3141C85.568 86.488 86.6095 85.4247 87.4185 83.7173L88 82.4905V44.0157V5.54098L87.4185 4.31419C86.6095 2.60698 85.568 1.54346 83.896 0.717399L82.5076 0.0314647L44.377 0.00299876C21.7784 -0.0140807 5.95589 0.0430348 5.53316 0.142757ZM82.0998 3.10136C83.1089 3.39943 84.6308 4.92079 84.929 5.92958C85.2538 7.02854 85.2538 81.0029 84.929 82.1019C84.6308 83.1107 83.1089 84.632 82.0998 84.9301C81.0004 85.2548 6.99958 85.2548 5.90023 84.9301C4.89107 84.632 3.36917 83.1107 3.071 82.1019C2.74619 81.0029 2.74619 7.02854 3.071 5.92958C3.34749 4.99407 4.88538 3.40218 5.78706 3.11808C6.75947 2.81175 81.064 2.7954 82.0998 3.10136ZM9.17754 9.20572L8.72651 9.6564V44.0157V78.3751L9.17754 78.8257L9.62838 79.2766H44H78.3716L78.8225 78.8257L79.2735 78.3751V44.0157V9.6564L78.8225 9.20572L78.3716 8.75486H44H9.62838L9.17754 9.20572ZM76.334 44.0157V76.3382H44H11.666V44.0157V11.6933H44H76.334V44.0157ZM40.6013 17.7642C29.2777 19.2925 20.2521 27.8376 17.9691 39.1912C17.4859 41.5941 17.5317 46.7905 18.0569 49.1916C18.9345 53.2016 20.5227 56.7166 22.8686 59.8398C26.887 65.1897 32.6124 68.7393 39.3152 70.0362C41.6032 70.4788 46.6029 70.4781 48.8262 70.0348C54.2159 68.9602 58.8053 66.5146 62.656 62.6651C66.4595 58.8629 68.7394 54.6504 69.9475 49.1916C70.5146 46.6294 70.5146 41.402 69.9475 38.8399C68.739 33.3804 66.456 29.1582 62.6593 25.3631C58.8474 21.5525 54.6688 19.2924 49.2359 18.1023C47.303 17.679 42.5975 17.4948 40.6013 17.7642ZM45.4697 23.7306C45.4697 26.907 45.4633 26.9594 45.0187 27.4036C44.7345 27.6879 44.3579 27.8545 44 27.8545C43.6421 27.8545 43.2655 27.6879 42.9813 27.4036C42.5367 26.9594 42.5303 26.907 42.5303 23.7306V20.5085H44H45.4697V23.7306ZM40.0273 28.2725C40.4791 29.1812 41.7726 30.3057 42.6785 30.5769C44.3575 31.0798 45.7473 30.7114 47.0376 29.4218C48.2738 28.186 48.4092 27.6451 48.4092 23.9438V20.9022L50.0167 21.3325C52.7715 22.0699 54.8455 23.0104 57.2276 24.603C58.9977 25.7862 62.2357 29.0231 63.4201 30.7929C69.664 40.1244 68.6451 52.222 60.9425 60.2093C57.7642 63.5051 54.3476 65.5405 50.0746 66.6837L48.4092 67.1292V64.0876C48.4092 60.5298 48.2694 59.9189 47.1781 58.7056C45.4374 56.7701 42.8428 56.73 40.9624 58.6097C39.7262 59.8455 39.5908 60.3863 39.5908 64.0876V67.1292L37.9833 66.6989C35.2285 65.9616 33.1545 65.0211 30.7724 63.4285C29.0023 62.2452 25.7643 59.0084 24.5799 57.2386C18.336 47.9071 19.3549 35.8095 27.0575 27.8222C30.2244 24.5383 33.6785 22.4767 37.8872 21.3588L39.499 20.9307L39.5908 24.2548C39.6671 27.0114 39.7415 27.6975 40.0273 28.2725ZM29.3027 39.8482C28.401 40.1323 26.8631 41.7241 26.5867 42.6597C26.0778 44.3816 26.4366 45.7543 27.7349 47.0522C28.6863 48.0033 29.6169 48.4233 30.7724 48.4233C31.928 48.4233 32.8585 48.0033 33.81 47.0522C35.6687 45.1942 35.6687 42.8372 33.81 40.9793C32.5172 39.6871 31.0126 39.3095 29.3027 39.8482ZM55.7578 39.8482C54.8561 40.1323 53.3183 41.7241 53.0418 42.6597C52.5329 44.3816 52.8917 45.7543 54.19 47.0522C55.1415 48.0033 56.072 48.4233 57.2276 48.4233C59.504 48.4233 61.6367 46.2913 61.6367 44.0157C61.6367 42.8606 61.2166 41.9304 60.2651 40.9793C58.9723 39.6871 57.4677 39.3095 55.7578 39.8482ZM31.7911 42.9974C32.7026 43.9083 32.0568 45.4849 30.7724 45.4849C30.0172 45.4849 29.3027 44.7707 29.3027 44.0157C29.3027 43.658 29.4693 43.2815 29.7537 42.9974C30.0379 42.7131 30.4146 42.5465 30.7724 42.5465C31.1303 42.5465 31.5069 42.7131 31.7911 42.9974ZM58.2463 42.9974C58.5307 43.2815 58.6973 43.658 58.6973 44.0157C58.6973 44.3735 58.5307 44.75 58.2463 45.0341C57.9621 45.3184 57.5854 45.4849 57.2276 45.4849C56.8697 45.4849 56.4931 45.3184 56.2088 45.0341C55.2974 44.1232 55.9432 42.5465 57.2276 42.5465C57.5854 42.5465 57.9621 42.7131 58.2463 42.9974ZM45.0187 60.6278C45.4633 61.0721 45.4697 61.1244 45.4697 64.3008V67.523H44H42.5303V64.3008C42.5303 61.1244 42.5367 61.0721 42.9813 60.6278C43.2655 60.3435 43.6421 60.177 44 60.177C44.3579 60.177 44.7345 60.3435 45.0187 60.6278Z" fill="#BE1704"/>
</svg>
