<svg width="76" height="88" viewBox="0 0 76 88" fill="none" xmlns="http://www.w3.org/2000/svg">
<g clip-path="url(#clip0_225_52)">
<path d="M57.0574 88.0236H18.9426C15.8978 88.0236 12.9778 86.7811 10.8248 84.5695C8.67179 82.3578 7.46225 79.3582 7.46225 76.2305V22.9965C7.46339 20.0769 8.51878 17.2615 10.4242 15.0951L12.307 16.8405C10.8275 18.5306 10.0096 20.7236 10.0109 22.9965V76.2305C10.017 78.6682 10.9623 81.0043 12.6404 82.728C14.3184 84.4518 16.5925 85.4229 18.9656 85.4291H57.0804C59.4534 85.4229 61.7276 84.4518 63.4056 82.728C65.0836 81.0043 66.029 78.6682 66.0351 76.2305V22.9965C66.0578 20.7125 65.2374 18.5045 63.739 16.8169L65.5758 15.048C67.5169 17.2157 68.5981 20.0512 68.6067 22.9965V76.2305C68.6067 77.7852 68.3075 79.3245 67.7262 80.7599C67.145 82.1954 66.2932 83.4986 65.2198 84.5946C64.1465 85.6906 62.8727 86.5578 61.4719 87.1463C60.0711 87.7348 58.5708 88.0329 57.0574 88.0236Z" fill="#BE1704"/>
<path d="M39.8355 56.654C39.8355 55.5988 39.008 54.7435 37.9872 54.7435C36.9664 54.7435 36.1388 55.5988 36.1388 56.654V66.8904C36.1388 67.9455 36.9664 68.8008 37.9872 68.8008C39.008 68.8008 39.8355 67.9455 39.8355 66.8904V56.654Z" fill="white"/>
<path d="M38 70.0981C37.5821 70.0983 37.1684 70.0123 36.7834 69.8452C36.3984 69.6781 36.05 69.4334 35.7588 69.1255C35.4676 68.8175 35.2396 68.4527 35.0881 68.0526C34.9367 67.6524 34.865 67.2251 34.8773 66.796V56.654C34.8403 56.2112 34.8932 55.7653 35.0327 55.3447C35.1722 54.924 35.3953 54.5377 35.6878 54.2103C35.9803 53.8829 36.3359 53.6215 36.7319 53.4426C37.128 53.2638 37.5559 53.1714 37.9885 53.1714C38.4211 53.1714 38.849 53.2638 39.2451 53.4426C39.6411 53.6215 39.9967 53.8829 40.2892 54.2103C40.5817 54.5377 40.8048 54.924 40.9443 55.3447C41.0838 55.7653 41.1367 56.2112 41.0997 56.654V66.796C41.1151 67.224 41.0464 67.6508 40.8975 68.0508C40.7487 68.4508 40.5228 68.8159 40.2334 69.1242C39.944 69.4325 39.5971 69.6776 39.2133 69.8449C38.8296 70.0123 38.4169 70.0984 38 70.0981ZM38 55.9464C37.8417 55.9464 37.6898 56.011 37.5779 56.126C37.4659 56.241 37.403 56.397 37.403 56.5596V66.796C37.403 67.48 38.574 67.48 38.574 66.796V56.654C38.5741 56.4953 38.5144 56.3428 38.4073 56.2285C38.3003 56.1141 38.1543 56.0468 38 56.0407V55.9464Z" fill="#BE1704"/>
<path d="M25.5312 57.3616C25.5312 57.5305 25.5966 57.6924 25.7128 57.8119C25.8291 57.9313 25.9868 57.9984 26.1512 57.9984H34.8763C35.0407 57.9984 35.1984 57.9313 35.3146 57.8119C35.4309 57.6924 35.4962 57.5305 35.4962 57.3616C35.4962 57.1927 35.4309 57.0307 35.3146 56.9113C35.1984 56.7918 35.0407 56.7247 34.8763 56.7247H26.1512C25.9868 56.7247 25.8291 56.7918 25.7128 56.9113C25.5966 57.0307 25.5312 57.1927 25.5312 57.3616Z" fill="white"/>
<path d="M34.8773 58.5645H26.1523C25.8234 58.5645 25.5081 58.4303 25.2755 58.1914C25.043 57.9526 24.9124 57.6286 24.9124 57.2908C24.9124 56.953 25.043 56.629 25.2755 56.3902C25.5081 56.1513 25.8234 56.0172 26.1523 56.0172H34.8773C35.2062 56.0172 35.5215 56.1513 35.7541 56.3902C35.9866 56.629 36.1172 56.953 36.1172 57.2908C36.1172 57.6286 35.9866 57.9526 35.7541 58.1914C35.5215 58.4303 35.2062 58.5645 34.8773 58.5645Z" fill="#BE1704"/>
<path d="M64.2671 17.2651H11.4574C10.2395 17.2651 9.07147 16.7681 8.21027 15.8834C7.34908 14.9988 6.86526 13.7989 6.86526 12.5478C6.86526 11.2967 7.34908 10.0969 8.21027 9.21224C9.07147 8.32759 10.2395 7.8306 11.4574 7.8306H64.2671C65.485 7.8306 66.653 8.32759 67.5142 9.21224C68.3754 10.0969 68.8592 11.2967 68.8592 12.5478C68.8592 13.7989 68.3754 14.9988 67.5142 15.8834C66.653 16.7681 65.485 17.2651 64.2671 17.2651ZM11.4574 10.4251C10.9093 10.4251 10.3837 10.6487 9.9962 11.0468C9.60866 11.4449 9.39094 11.9848 9.39094 12.5478C9.39094 13.1108 9.60866 13.6508 9.9962 14.0488C10.3837 14.4469 10.9093 14.6706 11.4574 14.6706H64.2671C64.8151 14.6706 65.3408 14.4469 65.7283 14.0488C66.1158 13.6508 66.3335 13.1108 66.3335 12.5478C66.3335 11.9848 66.1158 11.4449 65.7283 11.0468C65.3408 10.6487 64.8151 10.4251 64.2671 10.4251H11.4574Z" fill="#BE1704"/>
<path d="M2.47877 24.0107H7.43829V26.558H2.47877C2.14993 26.558 1.83457 26.4238 1.60204 26.185C1.36952 25.9461 1.23889 25.6222 1.23889 25.2844C1.23889 24.9466 1.36952 24.6226 1.60204 24.3838C1.83457 24.1449 2.14993 24.0107 2.47877 24.0107Z" fill="white"/>
<path d="M8.67915 27.8317H2.47976C1.82209 27.8317 1.19135 27.5633 0.726304 27.0856C0.26126 26.6079 0 25.96 0 25.2844C0 24.6088 0.26126 23.9609 0.726304 23.4832C1.19135 23.0054 1.82209 22.7371 2.47976 22.7371H8.67915V27.8317ZM2.47976 24.0107V25.308V24.0107Z" fill="#BE1704"/>
<path d="M73.4514 24.0107H68.5378V26.558H73.4514C73.7802 26.558 74.0956 26.4238 74.3281 26.185C74.5606 25.9461 74.6913 25.6222 74.6913 25.2844C74.6913 24.9466 74.5606 24.6226 74.3281 24.3838C74.0956 24.1449 73.7802 24.0107 73.4514 24.0107Z" fill="white"/>
<path d="M73.4528 27.8317H67.2993V22.7371H73.4528C74.1104 22.7371 74.7412 23.0054 75.2062 23.4832C75.6713 23.9609 75.9325 24.6088 75.9325 25.2844C75.9325 25.96 75.6713 26.6079 75.2062 27.0856C74.7412 27.5633 74.1104 27.8317 73.4528 27.8317Z" fill="#BE1704"/>
<path d="M67.2979 76.4427H7.46225V79.0372H67.2979V76.4427Z" fill="#BE1704"/>
<path d="M67.2979 30.3554H7.46225V32.9499H67.2979V30.3554Z" fill="#BE1704"/>
<path d="M42.0858 9.12784V8.89198C42.0858 7.00509 41.1214 5.6135 40.2489 5.6135H35.6568C34.7843 5.6135 33.8199 7.00509 33.8199 8.89198L30.835 9.12784C30.835 5.33047 32.9474 2.5473 35.6568 2.5473H40.2489C42.9583 2.5473 45.0707 5.33047 45.0707 8.89198L42.0858 9.12784Z" fill="#BE1704"/>
<path d="M17.6798 1.58027L18.3456 1.22648C18.7535 1.03385 19.2034 0.954263 19.6505 0.995642C20.0977 1.03702 20.5265 1.19792 20.8943 1.46234L16.3021 3.82096C16.3169 3.35534 16.4524 2.90221 16.6946 2.50832C16.9367 2.11444 17.2768 1.79407 17.6798 1.58027Z" fill="#BE1704"/>
<path d="M15.132 5.33048L15.2698 3.65586C15.3308 3.03635 15.5469 2.4436 15.8969 1.93524C16.2469 1.42687 16.7191 1.0202 17.2674 0.754761L17.9562 0.424555C18.5181 0.156501 19.139 0.0458599 19.756 0.103851C20.3729 0.161843 20.964 0.386404 21.4692 0.754761L22.8239 1.72179L15.132 5.33048Z" fill="#BE1704"/>
<path d="M18.6475 0.907875L16.5337 2.32776L21.2458 9.73047L23.3597 8.31059L18.6475 0.907875Z" fill="#BE1704"/>
<path d="M58.8016 1.58027L58.1128 1.22648C57.7049 1.03385 57.255 0.954263 56.8079 0.995642C56.3608 1.03702 55.932 1.19792 55.5641 1.46234L60.2711 3.82096C60.2476 3.34552 60.0984 2.88566 59.8395 2.49085C59.5805 2.09604 59.2217 1.78123 58.8016 1.58027Z" fill="#BE1704"/>
<path d="M61.352 5.33047L53.6602 1.62744L55.0837 0.754752C55.5769 0.391925 56.1523 0.16463 56.7551 0.0944536C57.3578 0.0242768 57.9681 0.113547 58.5278 0.353788L59.2167 0.683994C59.7744 0.955443 60.2527 1.37305 60.6034 1.89476C60.9541 2.41648 61.1648 3.02389 61.2142 3.65585L61.352 5.33047Z" fill="#BE1704"/>
<path d="M57.8459 0.916709L53.1463 8.29968L55.2602 9.71957L59.9598 2.33659L57.8459 0.916709Z" fill="#BE1704"/>
</g>
<defs>
<clipPath id="clip0_225_52">
<rect width="76" height="88" fill="white"/>
</clipPath>
</defs>
</svg>
