<svg width="98" height="88" viewBox="0 0 98 88" fill="none" xmlns="http://www.w3.org/2000/svg">
<path d="M59.8647 82.5H20.2683C17.0587 82.5 13.9806 81.1962 11.7111 78.8754C9.44166 76.5547 8.16667 73.4071 8.16667 70.125C8.16667 66.8429 9.44166 63.6953 11.7111 61.3746C13.9806 59.0538 17.0587 57.75 20.2683 57.75H59.8889V60.72H20.2683C19.0605 60.72 17.8645 60.9633 16.7486 61.4359C15.6328 61.9086 14.6189 62.6013 13.7649 63.4747C12.9108 64.348 12.2334 65.3848 11.7712 66.5259C11.3089 67.6669 11.0711 68.8899 11.0711 70.125C11.0711 71.3601 11.3089 72.5831 11.7712 73.7241C12.2334 74.8652 12.9108 75.902 13.7649 76.7753C14.6189 77.6487 15.6328 78.3414 16.7486 78.8141C17.8645 79.2867 19.0605 79.53 20.2683 79.53H59.8647V82.5Z" fill="#BE1704"/>
<path d="M36.5785 39.71H76.175C79.3845 39.71 82.4626 38.4062 84.7321 36.0854C87.0016 33.7647 88.2766 30.617 88.2766 27.335C88.2766 24.0529 87.0016 20.9053 84.7321 18.5845C82.4626 16.2638 79.3845 14.96 76.175 14.96H36.5543V17.93H76.175C77.3828 17.93 78.5787 18.1733 79.6946 18.6459C80.8104 19.1185 81.8243 19.8113 82.6784 20.6847C83.5324 21.558 84.2099 22.5948 84.6721 23.7359C85.1343 24.8769 85.3722 26.0999 85.3722 27.335C85.3722 28.5701 85.1343 29.7931 84.6721 30.9341C84.2099 32.0752 83.5324 33.112 82.6784 33.9853C81.8243 34.8587 80.8104 35.5514 79.6946 36.0241C78.5787 36.4967 77.3828 36.74 76.175 36.74H36.5785V39.71Z" fill="#BE1704"/>
<path d="M70.5834 88C67.0837 88 63.6627 86.9517 60.7528 84.9875C57.843 83.0234 55.5751 80.2317 54.2358 76.9655C52.8966 73.6992 52.5462 70.1052 53.2289 66.6378C53.9116 63.1704 55.5969 59.9853 58.0715 57.4855C60.5461 54.9856 63.6989 53.2832 67.1313 52.5935C70.5637 51.9038 74.1215 52.2577 77.3547 53.6107C80.588 54.9636 83.3515 57.2547 85.2957 60.1942C87.24 63.1337 88.2778 66.5897 88.2778 70.125C88.2778 72.4724 87.8201 74.7968 86.9309 76.9655C86.0416 79.1342 84.7383 81.1047 83.0952 82.7645C81.4521 84.4244 79.5015 85.741 77.3547 86.6394C75.2079 87.5377 72.907 88 70.5834 88ZM70.5834 55.3143C67.6837 55.3143 64.8491 56.1829 62.4381 57.8103C60.0271 59.4378 58.1479 61.7509 57.0383 64.4572C55.9286 67.1635 55.6382 70.1414 56.204 73.0144C56.7697 75.8874 58.166 78.5264 60.2164 80.5978C62.2668 82.6691 64.8791 84.0797 67.7231 84.6511C70.5671 85.2226 73.5149 84.9293 76.1939 83.8083C78.8729 82.6873 81.1626 80.789 82.7736 78.3534C84.3846 75.9178 85.2445 73.0543 85.2445 70.125C85.2445 66.197 83.6998 62.4298 80.9503 59.6522C78.2008 56.8747 74.4717 55.3143 70.5834 55.3143Z" fill="#BE1704"/>
<path d="M25.86 45.21C29.3597 45.21 32.7807 44.1616 35.6905 42.1975C38.6004 40.2334 40.8683 37.4417 42.2076 34.1755C43.5468 30.9092 43.8972 27.3152 43.2145 23.8478C42.5317 20.3803 40.8465 17.1953 38.3719 14.6955C35.8973 12.1956 32.7444 10.4932 29.3121 9.80346C25.8797 9.11375 22.3219 9.46774 19.0887 10.8207C15.8554 12.1736 13.0919 14.4646 11.1477 17.4042C9.20336 20.3437 8.1656 23.7997 8.1656 27.335C8.1656 29.6824 8.62329 32.0068 9.51252 34.1755C10.4017 36.3442 11.7051 38.3147 13.3482 39.9745C14.9913 41.6344 16.9419 42.951 19.0887 43.8493C21.2355 44.7476 23.5364 45.21 25.86 45.21ZM25.86 12.5243C28.7597 12.5243 31.5943 13.3929 34.0053 15.0203C36.4163 16.6478 38.2955 18.9609 39.4051 21.6672C40.5148 24.3735 40.8051 27.3514 40.2394 30.2244C39.6737 33.0974 38.2774 35.7364 36.227 37.8078C34.1766 39.8791 31.5643 41.2896 28.7203 41.8611C25.8763 42.4326 22.9284 42.1393 20.2495 41.0183C17.5705 39.8973 15.2808 37.999 13.6698 35.5634C12.0588 33.1278 11.1989 30.2643 11.1989 27.335C11.1989 23.407 12.7436 19.6398 15.4931 16.8622C18.2426 14.0847 21.9717 12.5243 25.86 12.5243Z" fill="#BE1704"/>
</svg>
