<svg width="48" height="48" viewBox="0 0 48 48" fill="none" xmlns="http://www.w3.org/2000/svg"><path d="M17.5 48H11C10.2044 48 9.44129 47.6839 8.87868 47.1213C8.31607 46.5587 8 45.7956 8 45V26H10V45C10 45.2652 10.1054 45.5196 10.2929 45.7071C10.4804 45.8946 10.7348 46 11 46H17.5V48Z" fill="#171326"></path><path d="M43.24 10.805L34.5 1C34.2182 0.6849 33.8729 0.432922 33.4869 0.260586C33.1008 0.0882505 32.6828 -0.000551193 32.26 2.57409e-06H11C10.2044 2.57409e-06 9.44129 0.316073 8.87868 0.878682C8.31607 1.44129 8 2.20435 8 3V7H10V3C10 2.73479 10.1054 2.48043 10.2929 2.2929C10.4804 2.10536 10.7348 2 11 2H32.25V11C32.25 11.5304 32.4607 12.0391 32.8358 12.4142C33.2109 12.7893 33.7196 13 34.25 13H42V45C42 45.2652 41.8946 45.5196 41.7071 45.7071C41.5196 45.8946 41.2652 46 41 46H34.5V48H41C41.7957 48 42.5587 47.6839 43.1213 47.1213C43.6839 46.5587 44 45.7957 44 45V12.8C43.9999 12.0643 43.7294 11.3543 43.24 10.805ZM34.25 3.73L40.735 11H34.235L34.25 3.73Z" fill="#171326"></path><path d="M32.703 40.3093C32.5149 40.1228 32.2605 40.0181 31.9953 40.0181C31.7301 40.0181 31.4757 40.1228 31.2876 40.3093L26.9761 44.6053V31.0014C26.9761 30.7358 26.8703 30.4811 26.682 30.2933C26.4938 30.1055 26.2384 30 25.9722 30C25.706 30 25.4506 30.1055 25.2624 30.2933C25.0741 30.4811 24.9684 30.7358 24.9684 31.0014V44.6053L20.6568 40.3093C20.4648 40.1453 20.2178 40.0595 19.9651 40.0693C19.7125 40.079 19.4728 40.1835 19.294 40.3618C19.1152 40.5402 19.0105 40.7792 19.0007 41.0313C18.991 41.2833 19.0769 41.5297 19.2414 41.7213L25.2645 47.7296C25.3115 47.777 25.3637 47.819 25.4201 47.8548C25.4451 47.8727 25.472 47.8878 25.5004 47.8998L25.5958 47.9499L25.6961 47.98H25.7815C25.9106 48.0067 26.0439 48.0067 26.173 47.98H26.2583L26.3587 47.9499L26.4541 47.8998C26.4824 47.8878 26.5093 47.8727 26.5344 47.8548C26.5907 47.819 26.6429 47.777 26.69 47.7296L32.7131 41.7213C32.8987 41.5323 33.0019 41.2778 33 41.0132C32.9981 40.7487 32.8913 40.4956 32.703 40.3093Z" fill="#171326"></path><path d="M15.845 14.71H15V18.265H15.835C16.925 18.265 17.45 17.685 17.45 16.49C17.45 15.295 16.915 14.71 15.845 14.71Z" fill="#CA1020"></path><path d="M9.56 14.71H8.5V16.18H9.55C10.18 16.18 10.445 15.96 10.445 15.45C10.445 14.94 10.175 14.71 9.56 14.71Z" fill="#CA1020"></path><path d="M26 11H6C5.46957 11 4.96086 11.2107 4.58579 11.5858C4.21071 11.9609 4 12.4696 4 13V20C4 20.5304 4.21071 21.0391 4.58579 21.4142C4.96086 21.7893 5.46957 22 6 22H26C26.5304 22 27.0391 21.7893 27.4142 21.4142C27.7893 21.0391 28 20.5304 28 20V13C28 12.4696 27.7893 11.9609 27.4142 11.5858C27.0391 11.2107 26.5304 11 26 11ZM9.855 17.46H9.73H8.5V19.61H6.955V13.375H9.66C11.135 13.375 11.98 14.12 11.98 15.425C11.98 16.73 11.19 17.415 9.855 17.46ZM16 19.61H13.45V13.375H16C17.925 13.375 19.03 14.51 19.03 16.495C19.03 18.48 17.935 19.61 16 19.61ZM25.035 14.73H22.14V15.865H24.68V17.155H22.135V19.615H20.575V13.375H25.045L25.035 14.73Z" fill="#CA1020"></path></svg>